<svg width="512" height="512" xmlns="http://www.w3.org/2000/svg">
 <g>
  <title>background</title>
  <rect x="-1" y="-1" width="514" height="514" id="canvas_background" fill="none"/>
 </g>

 <g>
  <title>Layer 1</title>
  <path fill="#577eb5" d="m137.3,201.5c-4.4,-3.3 -8.9,-5 -13.3,-5l-20,0l0,119.4l20,0c4.4,0 8.9,-1.7 13.3,-5s6.7,-8.3 6.7,-14.9l0,-79.6c-0.1,-6.6 -2.3,-11.6 -6.7,-14.9zm324.5,-201.5l-411.6,0c-27.7,0 -50.1,22.4 -50.2,50.1l0,411.9c0.1,27.6 22.5,50 50.2,50l411.7,0c27.7,0 50.1,-22.4 50.2,-50.1l0,-411.8c-0.2,-27.7 -22.6,-50.1 -50.3,-50.1zm-285.6,296.2c0,21.5 -13.3,54.1 -55.3,54l-53,0l0,-189.1l54.1,0c40.5,0 54.1,32.5 54.1,54l0.1,81.1zm115.1,-101.3l-60.9,0l0,43.9l37.2,0l0,33.8l-37.2,0l0,43.9l60.9,0l0,33.8l-71.1,0c-12.8,0.3 -23.4,-9.7 -23.7,-22.5l0,-143c-0.3,-12.7 9.8,-23.3 22.5,-23.6l72.2,0l0.1,33.7zm118.4,131.8c-15.1,35.1 -42.1,28.1 -54.2,0l-44,-165.5l37.2,0l34,130l33.8,-130l37.2,0l-44,165.5z" id="svg_1"/>
 </g>
</svg>